<svg width="320" height="200" viewBox="0 0 320 200" fill="none" xmlns="http://www.w3.org/2000/svg">
  <rect width="320" height="200" rx="24" fill="#101010"/>
  <!-- Building (Venue) -->
  <rect x="60" y="70" width="80" height="70" rx="10" fill="#181818" stroke="#00ff90" stroke-width="2"/>
  <rect x="95" y="110" width="10" height="30" rx="2" fill="#00ff90" opacity="0.8"/>
  <rect x="75" y="85" width="15" height="15" rx="3" fill="#232323" stroke="#00ff90" stroke-width="1"/>
  <rect x="110" y="85" width="15" height="15" rx="3" fill="#232323" stroke="#00ff90" stroke-width="1"/>
  <!-- Calendar -->
  <rect x="170" y="80" width="60" height="50" rx="8" fill="#181818" stroke="#00ff90" stroke-width="2"/>
  <rect x="185" y="100" width="30" height="8" rx="2" fill="#00ff90" opacity="0.8"/>
  <rect x="185" y="115" width="12" height="8" rx="2" fill="#00ff90" opacity="0.5"/>
  <rect x="203" y="115" width="12" height="8" rx="2" fill="#00ff90" opacity="0.5"/>
  <!-- Location Pin -->
  <circle cx="250" cy="70" r="16" fill="#00ff90" opacity="0.15"/>
  <path d="M250 60a10 10 0 0110 10c0 6-10 18-10 18s-10-12-10-18a10 10 0 0110-10zm0 6a4 4 0 100 8 4 4 0 000-8z" fill="#00ff90"/>
  <!-- Accent lines -->
  <line x1="60" y1="150" x2="240" y2="150" stroke="#00ff90" stroke-width="1" opacity="0.3"/>
  <line x1="80" y1="170" x2="220" y2="170" stroke="#00ff90" stroke-width="1" opacity="0.15"/>
  <!-- Glow effect -->
  <ellipse cx="160" cy="180" rx="70" ry="12" fill="#00ff90" opacity="0.07"/>
  <!-- Holidaze text -->
  <text x="50%" y="50" text-anchor="middle" font-family="'Montserrat', 'Segoe UI', Arial, sans-serif" font-size="32" fill="#00ff90" font-weight="bold" letter-spacing="2">Holidaze</text>
</svg>
