<?xml version="1.0" encoding="UTF-8"?>
<svg width="800" height="800" viewBox="0 0 800 800" fill="none" xmlns="http://www.w3.org/2000/svg">
    <!-- Background Elements -->
    <circle cx="400" cy="400" r="300" stroke="#22c55e" stroke-width="2" stroke-opacity="0.1"/>
    <circle cx="400" cy="400" r="200" stroke="#22c55e" stroke-width="2" stroke-opacity="0.2"/>
    
    <!-- Code Window Frame -->
    <rect x="200" y="200" width="400" height="300" rx="8" fill="#18181b" stroke="#22c55e" stroke-width="2"/>
    
    <!-- Window Controls -->
    <circle cx="230" cy="230" r="6" fill="#22c55e"/>
    <circle cx="260" cy="230" r="6" fill="#22c55e" fill-opacity="0.7"/>
    <circle cx="290" cy="230" r="6" fill="#22c55e" fill-opacity="0.4"/>
    
    <!-- Code Lines -->
    <rect x="220" y="270" width="160" height="8" rx="4" fill="#22c55e" fill-opacity="0.6"/>
    <rect x="220" y="290" width="240" height="8" rx="4" fill="#22c55e" fill-opacity="0.4"/>
    <rect x="220" y="310" width="200" height="8" rx="4" fill="#22c55e" fill-opacity="0.5"/>
    <rect x="220" y="330" width="180" height="8" rx="4" fill="#22c55e" fill-opacity="0.3"/>
    <rect x="220" y="350" width="220" height="8" rx="4" fill="#22c55e" fill-opacity="0.6"/>
    
    <!-- Floating Elements -->
    <path d="M500 400 L520 380 L540 400 L520 420 Z" fill="#22c55e"/>
    <path d="M150 450 L170 430 L190 450 L170 470 Z" fill="#22c55e" fill-opacity="0.5"/>
    <path d="M600 300 L620 280 L640 300 L620 320 Z" fill="#22c55e" fill-opacity="0.3"/>
    
    <!-- Connecting Lines -->
    <path d="M400 100 Q 600 300 400 500" stroke="#22c55e" stroke-width="2" stroke-opacity="0.2" fill="none"/>
    <path d="M200 300 Q 400 500 600 300" stroke="#22c55e" stroke-width="2" stroke-opacity="0.1" fill="none"/>
    
    <!-- Brackets -->
    <path d="M650 350 L670 400 L650 450" stroke="#22c55e" stroke-width="4" stroke-linecap="round" stroke-linejoin="round"/>
    <path d="M150 350 L130 400 L150 450" stroke="#22c55e" stroke-width="4" stroke-linecap="round" stroke-linejoin="round"/>
    
    <!-- Abstract Code Symbols -->
    <text x="220" y="420" fill="#22c55e" font-family="monospace" font-size="24" opacity="0.7">&lt;/&gt;</text>
    <text x="500" y="420" fill="#22c55e" font-family="monospace" font-size="24" opacity="0.5">{}</text>
</svg>
